<?xml version="1.0" encoding="utf-8"?>
<!-- Generator: Adobe Illustrator 27.4.0, SVG Export Plug-In . SVG Version: 6.00 Build 0)  -->
<svg version="1.1" id="Layer_1" xmlns="http://www.w3.org/2000/svg" xmlns:xlink="http://www.w3.org/1999/xlink" x="0px" y="0px"
	 viewBox="0 0 1200 800" style="enable-background:new 0 0 1200 800;" xml:space="preserve">
<style type="text/css">
	.st0{fill:#DFE8E5;}
</style>
<path class="st0" d="M180.7,390.9h-14V422h13.1c13.8,0,20.7-6.1,20.7-16.4C200.5,396.9,193.3,390.9,180.7,390.9L180.7,390.9z
	 M176.7,344.3h-10.1V374H179c7.3-0.3,14.7-6.3,14.7-15.2C193.6,350.3,188.2,344.3,176.7,344.3L176.7,344.3z M181.7,439.4H146V326.9
	h35.9c22,0,32.4,14.3,32.4,28c0,9.7-4.8,18.8-14,23.4v0.2c12.5,2.9,21.4,13.8,21.4,27.2C221.7,421.6,210,439.4,181.7,439.4
	 M281.4,377.9c-3.4-2-7-2.9-9.6-2.9c-4.8,0-10.1,2.2-15.5,7.2v57.2h-20.5v-80.8H253l2.2,8.5c8.4-7.3,14.7-10.4,22.4-10.4
	c3.9,0,7.5,1.9,10.6,4.1L281.4,377.9 M321.8,439.4h-20.5v-80.8h20.5V439.4z M311.6,343.2c-7,0-12.6-5.5-12.6-12.5
	c0-6.7,5.6-12.3,12.6-12.3c7.2,0,12.8,5.5,12.8,12.3C324.4,337.6,318.8,343.2,311.6,343.2 M370.7,441.1c-14.3,0-20-8-20-19V374
	h-14.3v-15.4h14.3V340l20.5-6.2v24.8h25.1l-6,15.4h-19.1v40.6c0,6.3,2.4,9.2,7.7,9.2c5.1,0,10.4-2.4,13.5-4.4l5.5,14.2
	C389.5,439.6,378.6,441.1,370.7,441.1 M432,439.4h-20.5v-80.8H432V439.4z M421.8,343.2c-7,0-12.6-5.5-12.6-12.5
	c0-6.7,5.6-12.3,12.6-12.3c7.2,0,12.8,5.5,12.8,12.3C434.6,337.6,428.9,343.2,421.8,343.2 M474.5,441.1c-13.3,0-22.9-3.2-29.9-7.5
	l6.7-14.2c6,4.1,13.7,6.3,21.7,6.3c8.4,0,13.8-3.1,13.8-8.5c0-14.5-37.2-9.1-37.2-36.5c0-14,11.1-23.9,30.6-23.9
	c10.1,0,17.4,1.5,23.7,4.1v17.1c-7-2.7-14.3-5.3-22.9-5.3c-7.2,0-11.4,2.2-11.4,7c0,12.8,37.9,8.5,37.9,36.4
	C507.4,434.1,491.5,441.1,474.5,441.1 M573.5,439.4v-47.1c0-9.1-1.4-18.3-12.3-18.3c-7,0-14.2,4.6-19.6,9.2v56.2H521V318.5h20.5
	v48.1c7.5-6.1,16.4-9.8,26.8-9.8c12.5,0,25.8,6,25.8,29.7v52.9L573.5,439.4 M716.2,344.1h-36.5V374h36l0.2,16.9h-36.2v48.5H659
	V326.8h62.9L716.2,344.1 M765.2,373c-13,0-19.3,10.9-19.3,26c0,15.7,7.3,26.3,19.8,26.3c12.8,0,19.3-11.1,19.3-26.3
	C785,383.4,777.9,373,765.2,373L765.2,373z M794.6,429.5c-7.2,7.3-17.1,11.6-29.2,11.6c-11.3,0-20.8-3.6-27.8-10.1
	c-8-7.5-12.5-18.6-12.5-31.6c0-12.6,4.3-23.6,11.8-31.3c7.2-7.2,16.9-11.4,28.7-11.4c12.5,0,22.5,4.3,29.7,11.6
	c7,7.5,10.8,18.1,10.8,30.4C806,411.1,802.1,422,794.6,429.5 M858.1,373c-13,0-19.3,10.9-19.3,26c0,15.7,7.3,26.3,19.8,26.3
	c12.8,0,19.3-11.1,19.3-26.3C877.9,383.4,870.8,373,858.1,373L858.1,373z M887.5,429.5c-7.2,7.3-17.1,11.6-29.2,11.6
	c-11.3,0-20.8-3.6-27.8-10.1c-8-7.5-12.5-18.6-12.5-31.6c0-12.6,4.3-23.6,11.8-31.3c7.2-7.2,16.9-11.4,28.7-11.4
	c12.5,0,22.5,4.3,29.7,11.6c7,7.5,10.8,18.1,10.8,30.4C898.9,411.1,895,422,887.5,429.5 M965.9,374.2c-2.7-0.7-5.1-1.2-9.6-1.2
	c-14.5,0-24.9,9.7-24.9,25.6c0,14.7,9.6,26.6,25.3,26.6c3.2,0,6.8-0.5,9.2-1.2V374.2z M954.8,441.1c-24.1,0-43.9-14.2-43.9-41.5
	c0-25.1,18.6-42.9,44.8-42.9c4.1,0,7.3,0.2,10.2,0.7v-38.9h20.5v116.1C978.7,438.5,968.6,441.1,954.8,441.1 M1028.6,441.1
	c-13.3,0-22.9-3.2-29.9-7.5l6.7-14.2c6,4.1,13.7,5.8,21.7,5.8c8.4,0,13.8-2.6,13.8-8c0-14.5-37.2-9.1-37.2-36.5
	c0-14,11.1-23.9,30.6-23.9c10.1,0,17.4,1.5,23.7,4.1v17.1c-7-2.7-14.3-5-22.9-5c-7.2,0-11.5,1.9-11.5,6.7c0,12.8,37.9,8.5,37.9,36.4
	C1061.5,434.1,1045.7,441.1,1028.6,441.1 M193.8,218.1c-2-5.6-3.4-10.2-4.3-14h-0.2c-0.7,3.9-2.2,8.4-4.1,13.7l-9.7,26.1h27.3
	L193.8,218.1z M220.4,289l-11.1-28.2h-40.1L158.8,289h-20.3l43.7-113.1h15L242.5,289H220.4 M279.5,290.7c-13.3,0-22.9-3.2-29.9-7.5
	l6.7-14.2c6,4.1,13.7,6.3,21.7,6.3c8.4,0,13.8-3.1,13.8-8.5c0-14.5-37.2-9.1-37.2-36.5c0-14,11.1-23.9,30.6-23.9
	c10.1,0,17.4,1.5,23.7,4.1v17.1c-7-2.7-14.3-5.8-22.9-5.8c-7.2,0-11.4,2.7-11.4,7.5c0,12.8,37.9,8.5,37.9,36.4
	C312.5,283.7,296.6,290.7,279.5,290.7 M350.9,290.7c-13.3,0-22.9-3.2-29.9-7.5l6.7-14.2c6,4.1,13.7,6.3,21.7,6.3
	c8.4,0,13.8-3.1,13.8-8.5c0-14.5-37.2-9.1-37.2-36.5c0-14,11.1-23.9,30.6-23.9c10.1,0,17.4,1.5,23.7,4.1v17.1
	c-7-2.7-14.3-5.8-22.9-5.8c-7.2,0-11.4,2.7-11.4,7.5c0,12.8,37.9,8.5,37.9,36.4C383.8,283.7,368,290.7,350.9,290.7 M435.3,221.7
	c-13,0-19.3,11.8-19.3,26.8c0,15.7,7.3,25.8,19.8,25.8c12.8,0,19.3-10.6,19.3-25.8C455.1,232.9,447.9,221.7,435.3,221.7z
	 M464.6,279.1c-7.2,7.3-17.1,11.6-29.2,11.6c-11.3,0-20.8-3.6-27.8-10.1c-8-7.5-12.5-18.6-12.5-31.6c0-12.6,4.3-23.6,11.8-31.3
	c7.2-7.2,16.9-11.4,28.7-11.4c12.5,0,22.5,4.3,29.7,11.6c7,7.5,10.8,18.1,10.8,30.4C476.1,260.6,472.1,271.5,464.6,279.1
	 M527.8,290.7c-26.3,0-39.8-19-39.8-41.7c0-24.6,17.8-42.7,41.8-42.7c10.9,0,18.1,2.7,22.7,5.6v15.5c-5.6-4.3-12-5.8-20.3-5.8
	c-13.8,0-23.7,11.3-23.7,26.3c0,13.8,7.5,26.3,23.6,26.3c7.7,0,13.5-2.1,19.1-5.3l5.1,13C549.9,286.4,538.9,290.7,527.8,290.7
	 M590.7,289h-20.5v-80.8h20.5V289z M580.4,192.8c-7,0-12.6-5.5-12.6-12.5c0-6.7,5.6-12.3,12.6-12.3c7.2,0,12.8,5.5,12.8,12.3
	C593.2,187.2,587.6,192.8,580.4,192.8 M652.8,251.9l-11.6,0.3c-11.1,0.3-16.1,4.1-16.1,10.9c0,6.7,4.6,11.3,13.2,11.3
	c7.2,0,11.8-2.7,14.5-5.1L652.8,251.9z M658,289l-3.4-7.2c-5.3,4.8-12.6,8.9-23.4,8.9c-14.9,0-26.5-10.1-26.5-26
	c0-16.7,13.2-25.8,33.8-26.5l14.3-0.5v-2c0-9.7-6.8-14-15.4-14c-8.9,0-15.7,2.7-20.8,5.8l-6.7-12.3c10.8-7.2,20.8-8.9,31.6-8.9
	c20,0,32.1,8.2,32.1,29.4v31.9c0,11.6,0.3,17.6,1.5,21.3H658 M720.1,290.7c-14.3,0-20-8-20-19v-48.2h-14.3v-15.4h14.3v-18.6
	l20.5-6.1v24.8h25.1l-6,15.4h-19.1v40.7c0,6.3,2.4,9.2,7.7,9.2c5.1,0,10.4-2.4,13.5-4.4l5.5,13C738.9,287.9,728,290.7,720.1,290.7
	 M791.2,221.7c-9.9,0-15.9,8.9-15.9,17.8h31.4C806.4,230.7,801.6,221.7,791.2,221.7z M775.8,253.9c0.3,12,10.2,20.3,22.7,20.3
	c7.7,0,14-1.5,21-5.3l4.9,12.8c-9.1,6.3-19.8,8.9-29.4,8.9c-28.2,0-40.1-20.5-40.1-42.2c0-23.1,13.7-42.2,36.7-42.2
	c21.9,0,36.2,16.6,36.2,41.7v6L775.8,253.9 M894.7,222.9c-2.7-0.7-5.1-1.2-9.6-1.2c-14.5,0-24.9,10.6-24.9,26.5
	c0,14.7,9.6,26.1,25.3,26.1c3.2,0,6.8-0.5,9.2-1.2V222.9z M883.6,290.7c-24.1,0-43.9-14.2-43.9-41.5c0-25.1,18.6-42.9,44.7-42.9
	c4.1,0,7.3,0.2,10.2,0.7V168h20.5v116.1C907.5,288.1,897.4,290.7,883.6,290.7"/>
<path class="st0" d="M175.2,525.4c-3.9,0-6.7,0.5-9.4,1.2v48.2c3.4,1.2,6.4,2.1,10.6,2.1c14.4,0,22.7-10.5,22.7-26.3
	C199.1,533.4,188.6,525.4,175.2,525.4z M177.4,593.2c-4.1,0-8.1-0.7-11.7-1.9V632h-20.6V513.9c8.4-2.9,18.4-5.5,31.6-5.5
	c28.8,0,43.8,16,43.8,41.2C220.5,575.1,202.2,593.2,177.4,593.2 M252.6,593.2c-13.6,0-18.7-7.7-18.7-17.9V469.9h20.6v96.3
	c0,6,1.2,8.4,5.5,8.4c1.4,0,3.1-0.2,6-0.9l2.6,15.3C262.5,592.3,257.2,593.2,252.6,593.2 M312.5,593.2c-26.4,0-40-19.1-40-41.9
	c0-24.7,17.9-42.9,42.1-42.9c11,0,18.5,2.7,23.2,5.7l-0.3,16.8c-5.7-4.3-12-6.7-20.4-6.7c-13.9,0-23.9,11-23.9,26.1
	c0,13.9,7.6,26.3,23.7,26.3c7.7,0,13.6-2.4,19.2-5.7l5.1,13.6C334.7,588.9,323.7,593.2,312.5,593.2"/>
</svg>
