<?xml version="1.0" encoding="utf-8"?>
<!-- Generator: Adobe Illustrator 27.4.0, SVG Export Plug-In . SVG Version: 6.00 Build 0)  -->
<svg version="1.1"
	 id="svg5102" xmlns:rdf="http://www.w3.org/1999/02/22-rdf-syntax-ns#" xmlns:cc="http://creativecommons.org/ns#" xmlns:dc="http://purl.org/dc/elements/1.1/" xmlns:inkscape="http://www.inkscape.org/namespaces/inkscape" xmlns:svg="http://www.w3.org/2000/svg" xmlns:sodipodi="http://sodipodi.sourceforge.net/DTD/sodipodi-0.dtd"
	 xmlns="http://www.w3.org/2000/svg" xmlns:xlink="http://www.w3.org/1999/xlink" x="0px" y="0px" viewBox="0 0 1000 314.7"
	 style="enable-background:new 0 0 1000 314.7;" xml:space="preserve">
<style type="text/css">
	.st0{fill:#DFE8E5;}
	.st1{fill-rule:evenodd;clip-rule:evenodd;fill:#DFE8E5;}
</style>
<sodipodi:namedview  bordercolor="#666666" borderopacity="1" gridtolerance="10" guidetolerance="10" id="namedview50" inkscape:current-layer="svg5102" inkscape:cx="732.02485" inkscape:cy="106.35524" inkscape:document-rotation="0" inkscape:pageopacity="0" inkscape:pageshadow="2" inkscape:window-height="705" inkscape:window-maximized="1" inkscape:window-width="1366" inkscape:window-x="-8" inkscape:window-y="-8" inkscape:zoom="0.23969534" objecttolerance="10" pagecolor="#ffffff" showgrid="false">
	</sodipodi:namedview>
<path id="path846" inkscape:connector-curvature="0" class="st0" d="M488.7,314.5c-47.7-1.7-96.6-13.4-146.7-34.8
	c-20.4-8.7-41.9-19.6-63.8-32.1c-14.5-8.2-47.6-28.5-49.4-30.2c-1.2-1.1-1.6-2.1-1.6-3.6c0-2.8,2-4.8,4.8-4.8c1.5,0,1.8,0.2,5.3,2.3
	c13.9,8.6,33.1,18.3,51.8,26.3c87.1,36.9,190.2,49.9,289.3,36.4c67.6-9.2,132.6-30.9,183.3-61c7.3-4.3,8-4.6,10.2-3.4
	c3,1.6,3.7,5.4,1.3,7.7c-0.9,0.9-2.1,1.6-18.7,12c-44.4,27.6-80.2,45.8-117.5,59.7C586.7,307.5,536.4,316.2,488.7,314.5L488.7,314.5
	z"/>
<path id="path4280" inkscape:connector-curvature="0" sodipodi:nodetypes="ccccscscscccccccccccccccccccccssssscssscccccccccscccccccccccccccccccccccccccccscccc" class="st1" d="
	M0,4.9c0,0,0.9,3,1.8,11.3C2.9,37.1,3,54.5,3.1,73.8c0.3,14.9,0.1,29.5,0,43.5c-0.1,9.5-0.2,14.7-0.2,23.3c0,25.7-2,43.6-2,43.6
	s19,4.1,47.6,4.1c28.6,0,59-9.9,76.6-24.8c17.5-14.9,33.3-36.2,33.3-74.4c0-38.2-16.4-59.2-38-72.9C98.8,2.5,65.8-0.1,40.3,1.1
	C14.9,2.2,0.9,4.9,0,4.9L0,4.9z M996,148.6l-38.3-9c-10,9.9-20.9,14.8-34.8,14.6c-28.7-0.5-42.9-17.4-48.2-45.2H998
	c1.8-9.9,2.3-20.4,1.7-30.3c-1.2-20-7.3-38.5-19.9-54.2C967.5,8.8,946.1,0.6,919.8,0.8c-24.8,0.2-45,8.7-61.1,25.7
	c-15.1,16-24.1,40.3-23.7,72c0.4,30.1,8.1,52.5,26.9,70.9c13.1,12.8,30.7,19.6,53.8,19.5C959.6,187.5,977.9,173.4,996,148.6
	L996,148.6z M964.7,78.1h-88.5c1.6-22.8,22.5-44.1,44.7-44C943.9,34.1,963.6,50.5,964.7,78.1z M576.5,35.3c29.3,0,53,26.4,53,59
	s-23.7,59.1-53,59.1c-29.3,0-53-26.4-53-59.1S547.2,35.3,576.5,35.3z M577.6,0c49.1,0,89,42.6,89,94.4c0,51.8-41,93.8-90.1,93.8
	c-49.1,0-89-42-89-93.8C487.5,42.6,528.5,0,577.6,0z M674.3,181.9H714V62c36.3,31.8,63.1,71.7,79.2,119.8l34.1,0.2V6l-38,0l0,86.2
	c-11.9-19.9-26.5-36.2-40.8-50.3c-14.4-14.1-26-26.1-40.6-36h-33.6L674.3,181.9z M327.3,181.9h38.6V62
	c36.3,31.8,62.6,71.7,78.6,119.8H479V6h-38.6v84.8C418,58.6,390.9,29.7,359.8,6h-32.4L327.3,181.9z M217.2,6h37.4
	c36.3,40.1,58.6,98.4,66.1,175.8H280c-1.1-13.4-2.7-25.8-4.9-38.2h-80.2c-2.2,12.4-3.9,24.7-4.9,38.2h-39.5
	C157.6,104,181.5,43.7,217.2,6z M267.6,110.7c-8.7-27.8-19.1-50.6-33.2-71.7c-14,21.2-24.9,45-32.6,71.7H267.6z M40.7,35.5
	c0,0,7.8-0.3,17.5-0.3c9.6,0,30.7,1.8,46.2,16.9c15.5,15.2,15.8,32.4,15.8,44.3c0,12-4.1,37.9-29.5,49.6
	c-25.4,11.7-50.2,7.3-50.2,7.3L40.7,35.5z"/>
</svg>
