<?xml version="1.0" encoding="utf-8"?>
<!-- Generator: Adobe Illustrator 27.4.0, SVG Export Plug-In . SVG Version: 6.00 Build 0)  -->
<svg version="1.1"
	 id="svg20633" xmlns:rdf="http://www.w3.org/1999/02/22-rdf-syntax-ns#" xmlns:cc="http://creativecommons.org/ns#" xmlns:dc="http://purl.org/dc/elements/1.1/" xmlns:inkscape="http://www.inkscape.org/namespaces/inkscape" xmlns:svg="http://www.w3.org/2000/svg" xmlns:sodipodi="http://sodipodi.sourceforge.net/DTD/sodipodi-0.dtd"
	 xmlns="http://www.w3.org/2000/svg" xmlns:xlink="http://www.w3.org/1999/xlink" x="0px" y="0px" viewBox="0 0 247 144.3"
	 style="enable-background:new 0 0 247 144.3;" xml:space="preserve">
<style type="text/css">
	.st0{fill:none;}
	.st1{fill:#DFE8E5;}
</style>
<sodipodi:namedview  bordercolor="#666666" borderopacity="1.0" fit-margin-bottom="0.5" fit-margin-left="0.5" fit-margin-right="0.5" fit-margin-top="0.5" id="base" inkscape:current-layer="layer1" inkscape:cx="209.108" inkscape:cy="138.89051" inkscape:document-rotation="0" inkscape:document-units="px" inkscape:pageopacity="0" inkscape:pageshadow="2" inkscape:window-height="872" inkscape:window-maximized="0" inkscape:window-width="1440" inkscape:window-x="0" inkscape:window-y="28" inkscape:zoom="0.61249759" lock-margins="true" pagecolor="#00ffff" showgrid="false" units="px">
	</sodipodi:namedview>
<rect x="0.4" y="14.1" class="st0" width="97" height="130.2"/>
<g id="g39844" transform="matrix(0.35277778,0,0,0.35277778,44.837584,10.304191)">
	<path id="path39842" class="st1" d="M4.6,11.1h11.3c11.3,0.9,22.6,4.1,32,10.5C59.2,29.1,67.3,41,70.7,54.1
		c4.2,16.3,2.4,33.8-3.5,49.5c-1.9,5.5-3.9,11-5.9,16.6c9.2-2.4,18.1-6.6,24.6-13.6c7.1-7.2,10.7-16.9,13-26.6
		c16.6-0.1,33.3,0,49.9,0c-8.6,22.8-14.9,47-14.5,71.5c0.2,28.4,10.5,55.3,13.3,83.3c2.1,19,1.5,38.5-4,56.9
		c-5,17.2-14.1,33.2-26.5,46.1c-12.5,13.1-28.1,22.9-44.8,29.4c-21.5,8.4-44.8,11.6-67.8,11.1c-27.4-0.6-55.2-6.8-78.8-21.3
		c-20.3-12.3-37.1-31.1-45.5-53.5c-8.4-22.3-7.8-48,2.3-69.6c7.9-16.9,22-30.6,38.7-38.7c20.6-9.9,44.2-12.5,66.8-10.1
		c3.2-8.2,6.2-16.4,9.5-24.6c-19-8.1-36.3-21.6-46.3-40.1c-15.2-27.7-11.8-65.2,10.1-88.4C-27.7,19.7-11.8,12.4,4.6,11.1 M-7.9,69.3
		C-11.7,77.6-12.1,87.7-8,96c4.4,9.2,11.4,17.8,20.9,22c1.9-4.4,3.5-9,5.3-13.4c2.7-7.1,5.9-14.2,6.8-21.9
		c0.9-6.4-0.1-13.4-4.2-18.5c-4.3-5.2-11.9-7.2-18.2-5.1C-2.2,60.8-5.8,64.8-7.9,69.3 M44.1,166.4c-3.7,10.3-7.8,20.6-11.4,31
		c11.5,5.4,23.3,11,32.3,20.2c-5.7,14.4-11.3,28.8-17.2,43.1c-8.9-8.8-19.2-16.3-30.9-20.8c-6.3,16.8-12.5,33.7-18.8,50.5
		c-16.3,0-32.6,0-48.9,0c7.3-19.5,14.5-39,21.7-58.5c-16-0.5-32,7.6-40.7,21.2c-3.7,5.7-5.9,12.5-5,19.3c0.9,14.4,8.3,27.9,19.4,37
		c15.1,12.5,35,17.7,54.3,19.1c15.9,1.1,32.2,0.1,47.4-5c13.7-4.4,26.4-12.6,35.3-24c11.7-14.7,16.2-34.2,14.9-52.7
		c-1.3-14.2-4.7-28.1-7.3-42.1c-3-15.8-5.5-31.7-5.5-47.8C71,161.8,57.7,165,44.1,166.4"/>
</g>
<path id="path39846" class="st1" d="M88.5,32.1c8.9-6.7,13.4-10.5,16.2-15.5c4-7,1.6-12.9-3.5-15.3c-4.8-2.2-10.5-0.1-12.7,4.6
	c-2.2-4.7-7.9-6.7-12.7-4.6c-5.1,2.3-7.6,8.3-3.5,15.3C75.2,21.6,79.7,25.4,88.5,32.1"/>
<path id="path39848" class="st1" d="M112.1,51.3L112.1,51.3c0-7.1,5.5-12.9,13-12.9c4.5,0,7.2,1.2,9.7,3.4l-3.4,4.1
	c-1.9-1.6-3.6-2.5-6.5-2.5c-4,0-7.1,3.5-7.1,7.7v0.1c0,4.5,3.1,7.9,7.5,7.9c2,0,3.8-0.5,5.1-1.5V54H125v-4.7h10.8v10.8
	c-2.6,2.2-6.1,3.9-10.6,3.9C117.4,64,112.1,58.6,112.1,51.3"/>
<path id="path39850" class="st1" d="M139.5,54.2L139.5,54.2c0-5.5,3.9-10,9.4-10c6.3,0,9.3,4.9,9.3,10.3c0,0.4,0,0.9-0.1,1.4h-13.2
	c0.5,2.4,2.2,3.7,4.6,3.7c1.8,0,3.1-0.6,4.6-2l3.1,2.7c-1.8,2.2-4.3,3.5-7.8,3.5C143.7,64,139.5,60,139.5,54.2 M152.9,52.6
	c-0.3-2.4-1.7-4-4-4c-2.2,0-3.7,1.6-4.1,4H152.9"/>
<path id="path39852" class="st1" d="M162.1,44.6h5.4v2.7c1.2-1.6,2.8-3,5.6-3c4.1,0,6.5,2.7,6.5,7.1v12.3h-5.4V53
	c0-2.6-1.2-3.9-3.3-3.9c-2.1,0-3.4,1.3-3.4,3.9v10.6h-5.4V44.6"/>
<path id="path39854" class="st1" d="M183.3,54.2L183.3,54.2c0-5.5,3.9-10,9.4-10c6.3,0,9.3,4.9,9.3,10.3c0,0.4,0,0.9-0.1,1.4h-13.2
	c0.5,2.4,2.2,3.7,4.6,3.7c1.8,0,3.1-0.6,4.6-2l3.1,2.7c-1.8,2.2-4.3,3.5-7.8,3.5C187.5,64,183.3,60,183.3,54.2 M196.7,52.6
	c-0.3-2.4-1.7-4-4-4c-2.2,0-3.7,1.6-4.1,4H196.7"/>
<path id="path39856" class="st1" d="M206,44.6h5.4v3.8c1.1-2.6,2.9-4.3,6.1-4.2v5.6h-0.3c-3.6,0-5.8,2.2-5.8,6.7v7H206L206,44.6"/>
<path id="path39858" class="st1" d="M218.8,58.1L218.8,58.1c0-4.2,3.2-6.1,7.7-6.1c1.9,0,3.3,0.3,4.6,0.8v-0.3
	c0-2.2-1.4-3.5-4.1-3.5c-2.1,0-3.5,0.4-5.2,1l-1.3-4.1c2.1-0.9,4.1-1.5,7.4-1.5c2.9,0,5.1,0.8,6.4,2.1c1.4,1.4,2.1,3.5,2.1,6.1v11
	H231v-2.1c-1.3,1.5-3.1,2.4-5.7,2.4C221.7,64,218.8,61.9,218.8,58.1 M231.1,56.9v-1c-0.9-0.4-2.1-0.7-3.4-0.7
	c-2.3,0-3.7,0.9-3.7,2.6v0.1c0,1.5,1.2,2.3,2.9,2.3C229.4,60.2,231.1,58.9,231.1,56.9"/>
<path id="path39860" class="st1" d="M241.1,63.6h5.4V37.7h-5.4V63.6z"/>
<path id="path39862" class="st1" d="M113.2,73h5.9l6.5,10.5l6.5-10.5h5.9v24.8h-5.4V81.6l-7,10.6h-0.1l-6.9-10.5v16.1h-5.4L113.2,73
	"/>
<path id="path39864" class="st1" d="M143.5,71.9h5.7v4.8h-5.7V71.9z M143.6,78.8h5.4v19h-5.4V78.8z"/>
<path id="path39866" class="st1" d="M154.3,97.8h5.4V71.9h-5.4V97.8z"/>
<path id="path39868" class="st1" d="M165.1,97.8h5.4V71.9h-5.4V97.8z"/>
<path id="path39870" class="st1" d="M174,95.3l2.3-3.5c2.1,1.5,4.2,2.3,6,2.3c1.6,0,2.3-0.6,2.3-1.4v-0.1c0-1.2-1.8-1.6-3.9-2.2
	c-2.7-0.8-5.7-2-5.7-5.7v-0.1c0-3.9,3.1-6,6.9-6c2.4,0,5,0.8,7.1,2.2l-2.1,3.7c-1.9-1.1-3.8-1.8-5.1-1.8c-1.3,0-2,0.6-2,1.3v0.1
	c0,1.1,1.8,1.6,3.9,2.3c2.7,0.9,5.7,2.2,5.7,5.6V92c0,4.2-3.2,6.1-7.3,6.1C179.5,98.2,176.5,97.3,174,95.3"/>
</svg>
