<?xml version="1.0" encoding="utf-8"?>
<!-- Generator: Adobe Illustrator 27.4.0, SVG Export Plug-In . SVG Version: 6.00 Build 0)  -->
<svg version="1.1" id="svg4540" xmlns:svg="http://www.w3.org/2000/svg"
	 xmlns="http://www.w3.org/2000/svg" xmlns:xlink="http://www.w3.org/1999/xlink" x="0px" y="0px" viewBox="0 0 1024 302"
	 style="enable-background:new 0 0 1024 302;" xml:space="preserve">
<style type="text/css">
	.st0{fill-rule:evenodd;clip-rule:evenodd;fill:#DFE8E5;}
</style>
<path id="path3568" class="st0" d="M409.3,9.3c-4.7,0-6.8,2.8-8.5,6.8C290.9,268.5,281.7,288.5,281.7,288.5c62.3,0,62.3,0,62.3,0
	c13-31.7,13-31.7,13-31.7c93.8,0,93.8,0,93.8,0c13,31.7,13,31.7,13,31.7c73.2,0,73.2,0,73.2,0s-6.3-13-119.1-272.4
	C416.1,12.1,414,9.3,409.3,9.3 M376.7,208.5c27-66.1,27-66.1,27-66.1c27.1,66.1,27.1,66.1,27.1,66.1H376.7z M720.4,161.7
	c21.4-12.7,37.6-34.9,37.6-66.8c0-25-10-45.6-27.5-59.6c-17.7-14.2-38.2-21.8-80.1-21.8c-89.6,0-89.6,0-89.6,0c0,275,0,275,0,275
	c66.2,0,66.2,0,66.2,0c0-102.4,0-102.4,0-102.4c20.5,0,20.5,0,20.5,0c22.3,0,33.6,8.4,43,30.7c7.9,18.9,13.5,41.3,20.8,71.6
	c73.8,0,73.8,0,73.8,0c-10.5-31.2-15.7-45.9-23.6-67.9C750.8,190.5,737.7,172,720.4,161.7 M678.1,127.9c-8,6.1-18.3,8-36.9,8
	c-14.1,0-14.1,0-14.1,0s-0.1-73.3,0-73.3c14.1,0,14.1,0,14.1,0c19.4,0,29.1,2.1,36.9,8C687,77.4,691,87.5,691,99.2
	C691,112,686.5,121.4,678.1,127.9 M133.1,130C20.7,18.3,20.7,18.3,20.7,18.3c-3.4-3.3-6.8-5.7-12.1-5.7c0,275.9,0,275.9,0,275.9
	c57.8,0,57.8,0,57.8,0c0-131.9,0-131.9,0-131.9c66.8,66.3,66.8,66.3,66.8,66.3c66.8-66.3,66.8-66.3,66.8-66.3
	c0,131.9,0,131.9,0,131.9c57.8,0,57.8,0,57.8,0c0-275.9,0-275.9,0-275.9c-5.3,0-8.7,2.4-12.1,5.7L133.1,130z M991.3,151.2
	c-29.5-27.9-83.1-32.6-104.2-49c-8.3-6.4-11.3-15.9-8.5-24.9c3.3-11.2,14.6-18.5,31-18.5c22.7,0,43,10.3,57.1,26.9
	c37.8-39.3,37.8-39.3,37.8-39.3c-22.3-23.5-57.9-37.7-95.3-37.7c-43.7,0-76.6,21-91.4,54.4c-11.4,26-7.5,53.1,6.6,72.5
	c27.1,37.7,84.4,38.8,109.2,58.2c8.8,6.9,13.8,18,8.5,30c-4.6,10.5-16.1,17.6-34.9,18.1c-26.1,0.6-49.4-11.5-66.5-32.8
	c-37.9,39.3-37.9,39.3-37.9,39.3c25,30.1,62.3,44.6,107.4,44.6c43.8,0,82.2-16.9,97.9-53C1021.7,208.7,1016.8,175.2,991.3,151.2"/>
</svg>
