<?xml version="1.0" encoding="utf-8"?>
<!-- Generator: Adobe Illustrator 27.4.0, SVG Export Plug-In . SVG Version: 6.00 Build 0)  -->
<svg version="1.1"
	 id="svg8" xmlns:rdf="http://www.w3.org/1999/02/22-rdf-syntax-ns#" xmlns:cc="http://creativecommons.org/ns#" xmlns:dc="http://purl.org/dc/elements/1.1/" xmlns:inkscape="http://www.inkscape.org/namespaces/inkscape" xmlns:svg="http://www.w3.org/2000/svg" xmlns:sodipodi="http://sodipodi.sourceforge.net/DTD/sodipodi-0.dtd"
	 xmlns="http://www.w3.org/2000/svg" xmlns:xlink="http://www.w3.org/1999/xlink" x="0px" y="0px" viewBox="0 0 561.9 138.8"
	 style="enable-background:new 0 0 561.9 138.8;" xml:space="preserve">
<style type="text/css">
	.st0{fill:#DFE8E5;}
</style>
<sodipodi:namedview  bordercolor="#666666" borderopacity="1.0" fit-margin-bottom="0" fit-margin-left="0" fit-margin-right="0" fit-margin-top="0" id="base" inkscape:current-layer="layer1" inkscape:cx="369.11872" inkscape:cy="90.308756" inkscape:document-units="mm" inkscape:pageopacity="0.0" inkscape:pageshadow="2" inkscape:window-height="744" inkscape:window-maximized="1" inkscape:window-width="1280" inkscape:window-x="-4" inkscape:window-y="-4" inkscape:zoom="0.65212073" pagecolor="#ffffff" showgrid="false">
	</sodipodi:namedview>
<g id="layer1" transform="translate(170.32591,-246.02742)" inkscape:groupmode="layer" inkscape:label="Layer 1">
	<g id="g545" transform="translate(0.9999948,-1.000008)">
		<path id="path386" inkscape:connector-curvature="0" class="st0" d="M-109.2,338.2c-2.6,2.3-6.3,3.1-8.6,3.4
			c-4.7,0.6-9.7-1-12.8-4.8c-2.6-3.1-3.9-7.1-6.4-10.3c-4-5.1-10.3-8.4-16.8-7.2c-12.9,2.3-18.8,17.4-11.5,27.9
			c10.4,14.9,33.9,12.3,46,2C-115.6,346-112.1,342.4-109.2,338.2"/>
		<path id="path388" inkscape:connector-curvature="0" class="st0" d="M328.5,338.2c2.6,2.3,6.3,3.1,8.6,3.4c4.7,0.6,9.7-1,12.8-4.8
			c2.6-3.1,3.9-7.1,6.4-10.3c4-5.1,10.3-8.4,16.8-7.2c12.9,2.3,18.8,17.4,11.5,27.9c-10.4,14.9-33.9,12.3-45.9,2
			C334.9,346,331.4,342.4,328.5,338.2"/>
		<path id="path390" inkscape:connector-curvature="0" class="st0" d="M285.5,258.5c-0.3,0-31.2,0-31.4,0c-3.4,0.1-6.2,3.2-6.3,6.4
			c-0.2,3.4,2.8,6.8,6.3,7c0.3,0,31.2,0,31.4,0c3.4-0.1,6.2-3.2,6.3-6.4C292,262.1,289,258.7,285.5,258.5"/>
		<path id="path392" inkscape:connector-curvature="0" class="st0" d="M89.1,325.5c-0.4-1.8-0.7-3.5-0.8-5.3c0-2.6,0-6.1,0-9.4
			c0.3-11.4,2.5-31.5-13-31.5c-10.4,0-16.6,8.8-18.4,11.7c-0.2-8-6.6-13.8-16.2-13.8c-6.2,0-9.8,4.9-9.8,4.9s6,2.1,6,10.2
			c0.1,5.8,0,33.9,0,34.1c0.2,5,3.7,9.7,10,9.7s10.1-4.8,10.1-9.7v-25c0.9-4.1,3.2-8.2,6.6-8.2c4.5,0,4.7,5,4.8,5l0,24.2
			c0,0.8,0.1,1.5,0.3,2.3c0.2,1.3,0.6,2.4,1.1,3.5c2.4,4.9,7.7,8,14.8,8c6.2,0,9.8-4.9,9.8-4.9S90.7,329.9,89.1,325.5"/>
		<path id="path394" inkscape:connector-curvature="0" class="st0" d="M237.8,325.5c-0.4-1.8-0.7-3.5-0.8-5.3l0-59.8
			c0-5.8-4.7-10.5-10.5-10.5c-5.8,0-10.5,4.7-10.5,10.5l0,53c0.1,4.8-0.4,9.6,1.8,14c2.4,4.9,8.3,8.6,15.4,8.6
			c6.2,0,9.8-4.9,9.8-4.9S239.5,329.9,237.8,325.5"/>
		<path id="path396" inkscape:connector-curvature="0" class="st0" d="M2.4,278.8c-15.8,0-28.6,12.8-28.6,28.6
			c0,15.8,12.8,28.6,28.6,28.6c15.8,0,28.6-12.8,28.6-28.6C31,291.6,18.2,278.8,2.4,278.8 M2.6,323.9L2.6,323.9
			C2.6,323.9,2.6,323.9,2.6,323.9c-0.1,0-0.1,0-0.1,0v0c-5.4-0.1-8.1-6.3-8.1-16.5c0-10.1,3.4-16.4,8.1-16.5v0c0,0,0,0,0.1,0
			c0,0,0,0,0.1,0v0c4.7,0.1,8.1,6.3,8.1,16.5C10.7,317.6,8,323.8,2.6,323.9"/>
		<path id="path398" inkscape:connector-curvature="0" class="st0" d="M153.5,325.5c-0.4-1.8-0.7-3.5-0.8-5.3l0-59.8
			c0-5.8-4.7-10.5-10.5-10.5c-5.8,0-10.5,4.7-10.5,10.5l0,28.3c-2.5-3.5-8.1-9.5-16.9-9.5c-24.2,0-25.7,43.1-9.1,53.7
			c4.7,3,11.7,3.8,17.1,2.4c3.7-1,9.5-4.6,10.4-8.9c0.1,0.3,0.3,0.6,0.4,0.9c2.4,4.9,8.3,8.6,15.4,8.6c6.2,0,9.8-4.9,9.8-4.9
			S155.1,329.9,153.5,325.5 M122.1,322.1L122.1,322.1C122.1,322.1,122.1,322.1,122.1,322.1c-0.1,0-0.1,0-0.1,0v0
			c-5.4-0.1-8.1-5.5-8.1-14.3c0-8.8,3.4-14.2,8.1-14.3v0c0,0,0,0,0.1,0c0,0,0,0,0.1,0v0c4.7,0.1,8.1,5.5,8.1,14.3
			C130.2,316.6,127.5,322,122.1,322.1"/>
		<path id="path400" inkscape:connector-curvature="0" class="st0" d="M208.3,318.3c0,0-3.1,4.2-15.1,4.2c-12,0-14.6-9.3-14.6-9.3
			c17.5,0,32.1-1.2,32.1-15.3c0-14.1-16-18.8-25.5-18.8c-15.7,0-27.1,12.5-27.1,29c0,18.6,14.9,28,27.3,28
			C207.3,336,208.3,318.3,208.3,318.3L208.3,318.3z M177.6,304.2c0.6-4.5,1.7-10.2,5.8-12.8c3.4-2.2,8.1,0.3,8.2,4.5
			c0.1,4.5-2.8,7.5-6.8,8.3C184.3,304.3,177.5,304.6,177.6,304.2"/>
		<path id="path402" inkscape:connector-curvature="0" class="st0" d="M292.6,318.3c0,0-3.1,4.2-15.1,4.2c-12,0-14.6-9.3-14.6-9.3
			c17.5,0,32.1-1.2,32.1-15.3c0-14.1-16-18.8-25.5-18.8c-15.7,0-27.1,12.5-27.1,29c0,18.6,14.9,28,27.3,28
			C291.6,336,292.6,318.3,292.6,318.3L292.6,318.3z M261.9,304.2c0.6-4.5,1.7-10.2,5.8-12.8c3.4-2.2,8.1,0.3,8.2,4.5
			c0.1,4.5-2.8,7.5-6.8,8.3C268.5,304.3,261.8,304.6,261.9,304.2"/>
		<path id="path404" inkscape:connector-curvature="0" class="st0" d="M332.2,319.9h-12c0.9,0,9.8-7.5,12.7-10
			c7.7-6.5,21.6-16,17.5-28.2l0,0.1c-0.7-2.9-3-4.6-3-4.6s-0.8,2.4-3.7,3.4c-1.2,0.3-2.3,0.5-3.5,0.6c-1,0-33.6,0-33.6,0
			c-4.4,0-8.1,3.5-8.2,7.7c-0.1,4.2,3.4,7.6,7.9,7.7l19,0.1c-8.8,4.9-19.3,10.7-24.7,19.6c-3.1,5.1-6.3,13-5.1,19
			c4.2-3.7,15.3-7.4,23.8-5.6c3.2,0.7,6.5,2.3,9.3,4c15.8,9.9,25.3-9.5,17.8-18C346.5,315.7,342.1,319.9,332.2,319.9"/>
		<path id="path406" inkscape:connector-curvature="0" class="st0" d="M-24.7,331.9c-9.7-10.6-12.7-28.4-13.3-40.1
			c-0.5-10.2,0-27.8,8-32.9c-2.7-3.4-8-4.7-12-4.7c-9,0-13.4,6-16.5,10.3c-1,1.4-16.2,22.4-16.2,22.4s-12.8-19.8-14.3-22.1
			c-2.2-3.3-6.2-9.3-13.4-10.3c-3.1-0.4-11.1-0.9-15.4,5.1c7.5,6,7.3,21.2,5.7,31.6c-4.9,31.2-18.2,34.1-18.2,34.1
			c6.8,18.4,24.4,11.1,29.3-3.5c3.2-9.5,5.3-21.6,5.8-31.6l19.2,29.5c0,0,21.8-29.4,21.8-29.4c-3.6,52.1,14.3,66.8,29.9,66.8
			c15.6,0,21-14.3,21-14.3C-11.7,342.3-19.1,338-24.7,331.9"/>
		<path id="path408" inkscape:connector-curvature="0" class="st0" d="M24.1,348.8c0.2,0.8,0.3,1.5,0.3,2.3c0,0.2,0,27.2,0,27.6
			c0.1,2.3,2.2,4.1,4.3,4.2c2.3,0.1,4.6-1.9,4.7-4.2c0-0.3,0-24.6,0-24.6c0-2,0.2-4.1-0.8-6c-1-2.1-3.5-3.7-6.6-3.7
			c-2.6,0-4.2,2.1-4.2,2.1S23.4,347,24.1,348.8"/>
		<path id="path410" inkscape:connector-curvature="0" class="st0" d="M309.6,378.4c-0.2-0.8-0.3-1.5-0.3-2.3c0-0.2,0-27.2,0-27.6
			c-0.1-2.3-2.2-4.1-4.3-4.3c-2.3-0.1-4.6,1.9-4.7,4.3c0,0.3,0,24.6,0,24.6c0,2-0.2,4.1,0.8,6c1,2.1,3.5,3.7,6.6,3.7
			c2.6,0,4.2-2.1,4.2-2.1S310.3,380.3,309.6,378.4"/>
		<path id="path412" inkscape:connector-curvature="0" class="st0" d="M146.7,358.3c-4.7,0-7.5,3.9-8.2,5.2l0,0c0-1.3,0-2.3,0-2.4
			c-0.1-2.3-2.2-4-4.3-4.1c-2.3-0.1-4.6,1.7-4.7,4.1c0,0.3,0,17.2,0,17.5c0.1,2.3,2.2,4.1,4.3,4.2c2.3,0.1,4.6-1.9,4.7-4.2
			c0-0.2,0-5.7,0-10.5l0,0c0.4-1.8,1.4-3.7,3-3.7c2,0,2.1,2.2,2.1,2.2l0,11.9c0.1,2.3,2.2,4.1,4.3,4.2c2.3,0.1,4.6-1.9,4.7-4.2
			l0-6.2C152.5,366,153.2,358.3,146.7,358.3"/>
		<path id="path414" inkscape:connector-curvature="0" class="st0" d="M261.8,358.3c-4.7,0-7.5,3.9-8.2,5.2l0,0c0-1.3,0-2.3,0-2.4
			c-0.1-2.3-2.2-4-4.3-4.1c-2.3-0.1-4.6,1.7-4.7,4.1c0,0.3,0,17.2,0,17.5c0.1,2.3,2.2,4.1,4.3,4.2c2.3,0.1,4.6-1.9,4.7-4.2
			c0-0.2,0-5.7,0-10.5l0,0c0.4-1.8,1.4-3.7,3-3.7c2,0,2.1,2.2,2.1,2.2l0,11.9c0.1,2.3,2.2,4.1,4.3,4.2c2.3,0.1,4.6-1.9,4.7-4.2
			l0-6.2C267.6,366,268.3,358.3,261.8,358.3"/>
		<path id="path416" inkscape:connector-curvature="0" class="st0" d="M55.3,358.3c-4.7,0-7.5,3.9-8.2,5.2l0,0c0-1.3,0-2.3,0-2.4
			c-0.1-2.3-2.2-4-4.3-4.1c-2.3-0.1-4.6,1.7-4.7,4.1c0,0.3,0,17.2,0,17.5c0.1,2.3,2.2,4.1,4.3,4.2c2.3,0.1,4.6-1.9,4.7-4.2
			c0-0.2,0-5.7,0-10.5l0,0c0.4-1.8,1.4-3.7,3-3.7c2,0,2.1,2.2,2.1,2.2l0,11.9c0.1,2.3,2.2,4.1,4.3,4.2c2.3,0.1,4.6-1.9,4.7-4.2
			l0-6.2C61.1,366,61.8,358.3,55.3,358.3"/>
		<path id="path418" inkscape:connector-curvature="0" class="st0" d="M229.2,357.2c-7.1,0-12.8,5.7-12.8,12.8
			c0,7.1,5.7,12.8,12.8,12.8c7.1,0,12.8-5.7,12.8-12.8C242,362.9,236.2,357.2,229.2,357.2 M229.2,377.4L229.2,377.4
			C229.2,377.4,229.2,377.4,229.2,377.4C229.2,377.4,229.2,377.4,229.2,377.4L229.2,377.4c-2.5,0-3.7-2.8-3.7-7.4
			c0-4.5,1.5-7.3,3.6-7.4v0c0,0,0,0,0,0c0,0,0,0,0,0v0c2.1,0,3.6,2.8,3.6,7.4C232.9,374.6,231.7,377.3,229.2,377.4"/>
		<path id="path420" inkscape:connector-curvature="0" class="st0" d="M181.3,360.9c-0.1-2.4-2.3-4.3-4.6-4.4
			c-2.4-0.1-4.8,2-4.9,4.4c0,0.2,0,0.5,0,0.6c-1.1-1.6-3.6-4.3-7.6-4.3c-10.8,0-11.5,19.3-4.1,24.1c2.1,1.3,5.3,1.7,7.7,1.1
			c1.4-0.4,3.3-1.5,4.2-3c0.6,1.9,2.4,3.3,4.4,3.4c2.4,0.1,4.8-2,4.9-4.4C181.3,378.1,181.3,361.1,181.3,360.9 M167.5,376.4
			L167.5,376.4C167.5,376.4,167.5,376.4,167.5,376.4C167.5,376.4,167.5,376.4,167.5,376.4L167.5,376.4c-2.5,0-3.7-2.5-3.7-6.4
			c0-4,1.5-6.4,3.6-6.4v0c0,0,0,0,0,0c0,0,0,0,0,0v0c2.1,0,3.6,2.5,3.6,6.4C171.1,373.9,169.9,376.4,167.5,376.4"/>
		<path id="path422" inkscape:connector-curvature="0" class="st0" d="M296.3,360.9c-0.1-2.4-2.3-4.3-4.6-4.4
			c-2.4-0.1-4.8,2-4.9,4.4c0,0.2,0,0.5,0,0.6c-1.1-1.6-3.6-4.3-7.6-4.3c-10.8,0-11.5,19.3-4.1,24.1c2.1,1.3,5.3,1.7,7.6,1.1
			c1.4-0.4,3.3-1.5,4.3-3c0.6,1.9,2.4,3.3,4.4,3.4c2.4,0.1,4.8-2,4.9-4.4C296.3,378.1,296.3,361.1,296.3,360.9 M282.5,376.4
			L282.5,376.4C282.5,376.4,282.5,376.4,282.5,376.4C282.5,376.4,282.5,376.4,282.5,376.4L282.5,376.4c-2.5,0-3.7-2.5-3.7-6.4
			c0-4,1.5-6.4,3.6-6.4v0c0,0,0,0,0,0c0,0,0,0,0,0v0c2.1,0,3.6,2.5,3.6,6.4C286.1,373.9,284.9,376.4,282.5,376.4"/>
		<path id="path424" inkscape:connector-curvature="0" class="st0" d="M213.5,363.3c-0.1-2.2-1.9-4-4.1-4.2c-0.1,0-0.3,0-0.4,0
			c-2,0-4.5,1.7-4.5,3.9l0,8.3h0c0,2.6,0,7.3,0,7.3c0.1,2.2,1.9,4,4.1,4.2c0.1,0,0.3,0,0.4,0c2,0,4.5-1.7,4.5-3.9l0-6.9h0
			C213.5,369.4,213.5,363.3,213.5,363.3"/>
		<path id="path426" inkscape:connector-curvature="0" class="st0" d="M213.5,352.1c0,2.5-2,4.5-4.5,4.5c-2.5,0-4.5-2-4.5-4.5
			c0-2.5,2-4.5,4.5-4.5C211.5,347.6,213.5,349.6,213.5,352.1"/>
		<path id="path428" inkscape:connector-curvature="0" class="st0" d="M122.2,358c-2.7,0.1-4,2.1-5.8,4.6c0,0,0-1.2,0-1.2
			c-0.1-2.3-2.2-4.1-4.3-4.2c-2.3-0.1-4.6,1.9-4.7,4.2v17.3h0c0.1,2.3,2.2,4.1,4.3,4.2c2.3,0.1,4.5-1.8,4.7-4.2h0l0-11
			c0.1-1.6,0.8-3.6,2.1-3.6c1.8,0-0.1,4.4,4.1,4.4C128.7,368.7,129.3,357.7,122.2,358"/>
		<path id="path430" inkscape:connector-curvature="0" class="st0" d="M103.9,374.9c0,0-1.4,1.9-6.8,1.9c-5.4,0-6.5-4.2-6.5-4.2
			c7.8,0,14.4-0.5,14.4-6.9c0-6.3-7.2-8.4-11.4-8.4c-7,0-12.2,5.6-12.2,13c0,8.3,6.7,12.5,12.2,12.5
			C103.4,382.8,103.9,374.9,103.9,374.9L103.9,374.9z M90.1,368.5c0.3-2,0.8-4.6,2.6-5.8c1.5-1,3.6,0.1,3.7,2c0,2-1.3,3.4-3.1,3.7
			C93.1,368.6,90,368.7,90.1,368.5"/>
		<path id="path432" inkscape:connector-curvature="0" class="st0" d="M80.9,378.1c0,0-2.3,4.7-6.7,4.7c-3.6,0-7.9-3.1-8.1-7.7
			c0,0,0-6.6,0-12.1h-1.2c-0.6,0-1.8-0.4-1.8-2c0-1.6,1.3-2,1.9-2H66c0-1.9,0-3.2,0-3.3c0.1-2.4,2.4-4.3,4.7-4.2
			c2.2,0.1,4.3,2,4.4,4.2v3.3h3.8c0.5,0,1.8,0.3,1.8,2c0,1.7-1.2,2-1.9,2h-3.7v10.1C75.1,376.4,77.9,378.1,80.9,378.1"/>
		<path id="path434" inkscape:connector-curvature="0" class="st0" d="M201.3,378.1c0,0-2.3,4.7-6.7,4.7c-3.6,0-7.9-3.1-8.1-7.7
			c0,0,0-6.6,0-12.1h-1.2c-0.6,0-1.7-0.4-1.7-2c0-1.6,1.3-2,1.9-2h1.1c0-1.9,0-3.2,0-3.3c0.1-2.4,2.4-4.3,4.7-4.2
			c2.2,0.1,4.3,2,4.4,4.2v3.3h3.8c0.5,0,1.8,0.3,1.8,2c0,1.7-1.2,2-1.9,2h-3.7v10.1C195.5,376.4,198.3,378.1,201.3,378.1"/>
	</g>
</g>
</svg>
