<?xml version="1.0" encoding="utf-8"?>
<!-- Generator: Adobe Illustrator 27.4.0, SVG Export Plug-In . SVG Version: 6.00 Build 0)  -->
<svg version="1.1" id="Visual" xmlns="http://www.w3.org/2000/svg" xmlns:xlink="http://www.w3.org/1999/xlink" x="0px" y="0px"
	 viewBox="0 0 320 86.4" style="enable-background:new 0 0 320 86.4;" xml:space="preserve">
<style type="text/css">
	.st0{fill:#DFE8E5;}
</style>
<g>
	<path class="st0" d="M314.4,13.9c1.2,0,2.1-0.3,2.8-0.9c0.7-0.7,1.1-1.6,1.1-2.9V4.9c0-2-0.4-3-1.1-3.8c-0.6-0.7-1.6-1.1-2.8-1.1
		c-0.9,0-1.8,0.1-3.3,0.3l-45,4.5c-1.3,0.1-1.9,0.5-2.4,1c-0.5,0.6-0.7,1.3-0.7,2.3V11c0,1.1,0.2,1.6,0.6,2.1
		c0.5,0.6,1.2,0.8,2.3,0.8L314.4,13.9L314.4,13.9z"/>
	<path class="st0" d="M248.4,1.3h-6.7c-1.8,0-2.9,0.6-3.8,1.6c-0.7,0.8-1.1,1.9-1.1,3.4v73.9c0,1.5,0.5,2.5,1.1,3.4
		c0.9,1,2,1.6,3.8,1.6h6.7c1.8,0,2.9-0.6,3.8-1.6c0.7-0.8,1.1-1.9,1.1-3.4V6.3c0-1.5-0.5-2.5-1.1-3.4C251.3,1.9,250.2,1.3,248.4,1.3
		z"/>
	<path class="st0" d="M190.9,13c0.7-0.7,1.1-1.6,1.1-2.9v-5c0-1.3-0.3-2.3-1.1-2.9c-0.7-0.6-1.6-0.9-2.8-0.9H59.5
		C57.3,1.3,56,2,55,3.2c-0.8,1-1.2,2-1.2,3.9v51.3h-0.3c0,0-28.1-50-29.4-52.3c-1-1.6-2-2.8-3.4-3.6S17.8,1.2,15,1.2H5.7
		c-2.2,0-3.5,0.7-4.5,1.9C0.4,3.9,0,5,0,6.8v72.7c0,1.9,0.4,2.9,1.2,3.9c1,1.1,2.3,1.9,4.5,1.9h5.2c2.1,0,3.5-0.7,4.5-1.9
		c0.8-1,1.2-2,1.2-3.9V27h0.3c0,0,29.1,51.6,30.3,53.5c1.6,2.7,4.4,4.7,8.3,4.7h9c2.1,0,3.5-0.7,4.5-1.9c0.8-1,1.2-2,1.2-3.9V13.9
		h117.9C189.4,13.9,190.3,13.6,190.9,13L190.9,13z"/>
	<path class="st0" d="M106.5,22.6c-19.6,0-30.6,15.3-30.6,31.4c0,17.2,11.8,32.3,30.7,32.3c9.4,0,18.7-3.6,24-9.8
		c2.3-2.7,4.2-6.5,4.2-8.8c0-0.8-0.2-1.5-0.6-2c-0.5-0.6-1.1-0.9-2.3-0.9h-9.1c-1.8,0-3.1,0.7-3.9,2c-2.6,3.9-6.5,5.9-12.1,5.9
		c-8.5,0-13.9-6.4-14.3-13.5h39.3c1.8,0,3-0.4,3.8-1.2c1-0.9,1.4-2.2,1.4-4.6c0-7.4-2.3-15.1-7.2-20.9
		C124.7,26.6,117.2,22.6,106.5,22.6L106.5,22.6z M92.4,47.3c0.7-6.9,6-12.1,14.1-12.1s13.4,5.2,14.1,12.1
		C120.6,47.3,92.4,47.3,92.4,47.3z"/>
	<path class="st0" d="M289.6,22.6C270,22.6,259,37.9,259,54c0,17.2,11.8,32.3,30.7,32.3c9.4,0,18.7-3.6,24-9.8
		c2.3-2.7,4.2-6.5,4.2-8.8c0-0.8-0.2-1.5-0.6-2c-0.5-0.6-1.1-0.9-2.3-0.9h-9.1c-1.8,0-3,0.7-4,2c-2.6,3.9-6.5,5.9-12.1,5.9
		c-8.5,0-13.9-6.4-14.3-13.5h39.4c1.8,0,3-0.4,3.8-1.2c1-0.9,1.4-2.2,1.4-4.6c0-7.4-2.3-15.1-7.2-20.9
		C307.9,26.6,300.2,22.6,289.6,22.6L289.6,22.6z M275.5,47.3c0.7-6.9,6-12.1,14.1-12.1s13.4,5.2,14.1,12.1L275.5,47.3L275.5,47.3z"
		/>
	<path class="st0" d="M178.3,49.2l-12.8-3.3c-5.3-1.3-7.8-2.3-7.8-5.6s2.8-5.7,9.4-5.7c3.8,0,7.3,0.8,9.6,3.2c1.9,2,1.5,3,3,3.8
		c0.9,0.5,1.9,0.5,3.5,0.5h6.4c1,0,1.8-0.2,2.3-0.8c0.5-0.5,0.7-1.3,0.7-2.6c0-2.9-1.9-6.7-5.3-9.6c-4.5-3.9-11.6-6.5-20.2-6.5
		c-15.5,0-25.6,7.3-25.6,19.1c0,4.2,1.5,7.6,4,10.2c2.9,3.1,7,5.2,13,6.8l12.9,3.3c3.6,0.9,6.7,2,6.7,5.1c0,4.8-5.1,6.4-10.5,6.4
		c-2.6,0-5.4-0.5-7.7-1.6c-1.6-0.8-2.9-1.9-3.9-3.4c-0.9-1.3-1.1-2.3-2.4-3c-0.8-0.5-1.8-0.5-3-0.5h-7c-1.5,0-2.3,0.5-2.8,1.1
		s-0.7,1.5-0.7,2.4c0,2.3,0.8,5.1,2.6,7.6c4.3,5.8,13.3,10.4,24.7,10.4c11.5,0,26.9-4.7,26.9-19.8c0-3.9-1.1-7.2-3.2-9.9
		C188.5,53.2,184.7,50.8,178.3,49.2L178.3,49.2z"/>
	<path class="st0" d="M228.7,24.7h-10.2V6.3c0-1.5-0.5-2.5-1.1-3.4c-0.9-1-2-1.6-3.8-1.6h-6.4c-1.8,0-2.9,0.6-3.8,1.6
		c-0.7,0.8-1.1,1.9-1.1,3.4v18.4h-3.2c-1.2,0-2.1,0.3-2.8,0.9c-0.7,0.7-1.1,1.6-1.1,2.9v3.9c0,1.4,0.3,2.3,1.1,2.9
		c0.7,0.6,1.6,0.9,2.8,0.9h3.2v28.2c0,7.2,2,11.7,5.6,15.3c3.4,3.3,7.8,5.4,15.5,5.4h4.8c1.2,0,2.1-0.3,2.8-0.9
		c0.7-0.7,1.2-1.6,1.2-2.9v-4.9c0-1.3-0.5-2.3-1.2-2.9s-1.6-0.9-2.8-0.9h-0.7c-3,0-5.1-0.8-6.5-2.2c-1.7-1.6-2.5-4-2.5-7.2v-27h10.3
		c1.2,0,2.1-0.3,2.8-0.9c0.7-0.7,1.1-1.6,1.1-2.9v-3.9c0-1.4-0.3-2.3-1.1-2.9C230.7,25,229.8,24.7,228.7,24.7L228.7,24.7z"/>
</g>
</svg>
