<?xml version="1.0" encoding="utf-8"?>
<!-- Generator: Adobe Illustrator 27.4.0, SVG Export Plug-In . SVG Version: 6.00 Build 0)  -->
<svg version="1.1" id="Layer_1" xmlns="http://www.w3.org/2000/svg" xmlns:xlink="http://www.w3.org/1999/xlink" x="0px" y="0px"
	 viewBox="0 0 2500 694" style="enable-background:new 0 0 2500 694;" xml:space="preserve">
<style type="text/css">
	.st0{fill-rule:evenodd;clip-rule:evenodd;fill:#DFE8E5;}
</style>
<g>
	<path class="st0" d="M642.8,433.8h57.8c22.6,0,31.1,7.8,31.1,26.9c0,18.4-8.6,26.1-31.1,26.1h-57.8V433.8z M553.3,626.7h89.6v-78.4
		h96c63.5,0,86.4-37.4,86.4-85.8c0-56.2-23.5-87.9-87-87.9H553.3V626.7z M854.7,374.5h241.1v61.4H944.3v33.9h140.7v61.5H944.3v33.9
		h151.5v61.5H854.7V374.5z M1222.9,433.8h57.8c22.6,0,31.1,7.8,31.1,26.9c0,18.4-8.6,26.1-31.1,26.1h-57.8V433.8z M1133.3,626.7
		h89.6v-78.4h95.9c63.5,0,86.4-37.4,86.4-85.8c0-56.2-23.5-87.9-87.1-87.9h-184.9V626.7z M1492,519.6c-43.8-7.4-61.9-35.7-61.9-71
		c0-65.4,57.5-83,131.2-83c101,0,142.6,29.3,145.8,82.6h-104.2c0-10.2-5.4-16.6-13.6-20.1c-7.9-3.9-18.1-5.3-28-5.3
		c-26.7,0-35.9,7.4-35.9,18c0,7.1,2.8,11.7,11.7,13.1l107.1,17.7c45.1,7.4,73.1,30.7,73.1,73.5c0,61.5-45.1,90.4-145.8,90.4
		c-68.9,0-144.2-10.6-144.5-84.8h108c0.3,8.5,3.2,14.1,9.5,18c6.7,3.5,16.5,5.3,30.5,5.3c28,0,35.6-8.5,35.6-20.5
		c0-7.4-4.1-14.8-16.2-16.9L1492,519.6z M1746.4,374.5h89.6v252.2h-89.6V374.5z M2168,528.5c-5.7,33.2-15.9,60-38.1,78.4
		c-21.9,18.4-56.2,28.6-110.9,28.6c-54.3,0-155-4.2-155-134.9c0-130.7,100.7-134.9,155-134.9c54,0,137.2,7.8,149,107.7h-101
		c-2.5-18-13.4-44.2-48-44.2c-36.6,0-59.7,20.1-59.7,71.4c0,51.2,22.6,71.3,55.3,71.3c28.3,0,45.1-13.1,52.4-43.4L2168,528.5
		L2168,528.5z M2285.2,500.6c0-51.2,23.2-71.4,59.7-71.4c36.5,0,59.7,20.1,59.7,71.4c0,51.2-23.2,71.3-59.7,71.3
		C2308.4,571.9,2285.2,551.8,2285.2,500.6L2285.2,500.6z M2189.9,500.6c0,130.7,100.7,134.9,155,134.9c54.3,0,155-4.2,155-134.9
		c0-130.7-100.7-134.9-155-134.9C2290.6,365.7,2189.9,369.9,2189.9,500.6L2189.9,500.6z M417.9,377c5.8-121-98.6-257.2-240.8-274.1
		l0.2-1.7c140.2,0,247.7,129.8,247.7,232.2c-0.1,21.3-1.8,34.5-4.8,44.1L417.9,377z M409.4,392.4c-9.3,11.4-21.1,22.9-34.8,33.8
		c-25.3-145.5-132.2-272.6-207.7-309.8l-1.6,1.1c76,62.4,166.6,183.5,201.9,314.3c-18,13.2-37.4,24.3-57.9,33.2
		c-71.7-81.8-138.6-239.5-160.1-339.6l-2.2,0.7c0.5,97.2,69.5,262.1,153.6,342.5c-19.3,7.6-39.3,13.2-59.8,16.5
		c-80.6-31.9-138-134.2-138-239.1c0-68.4,20.9-110.7,24.9-119.4l-1.7-0.7c-4.9,7.4-35.4,49.7-35.4,123.5c0,118.5,58.4,209,136,237.5
		c-27.7,3.1-55.8,1.7-83.1-3.9l-0.6,1.8c8.3,3.1,36.4,14.9,79.4,14.9c97.1,0,162.8-60.3,189.2-106.2L409.4,392.4z"/>
	<path class="st0" d="M212.4,58.5c-73.6,0-160,53.1-160,101.7c0,18.8,17.2,34.7,52.8,34.7c82.6,0,159.3-56.7,159.3-100.9
		C264.5,70.8,242.2,58.5,212.4,58.5z M241.8,92.7c0,37.2-71.4,82.6-131.1,82.6c-26.4,0-40.6-10.4-40.6-27.5
		c0-37.7,72.2-82.4,128.2-82.4C234.7,65.4,241.8,84,241.8,92.7z"/>
	<path class="st0" d="M23.1,182.7c-2.1,3.6-10.4,19.8-10.4,36.4c0,30.8,31.2,59.5,88.5,59.5c110.3,0,237.6-81.2,237.6-156.5
		c0-33.8-32-52.2-54.2-56l-0.4,1.3c6.9,2.2,32.2,14,32.2,44.1c0,60-112.5,141.8-224.5,141.8c-42.9,0-69.9-21.2-69.9-52
		c0-9.8,2-16.2,2.6-18L23.1,182.7z"/>
	<path class="st0" d="M384.3,127.8c3,2.3,21.2,17.4,21.2,46.1c0,97.6-152.9,193.6-288.1,193.6C36.8,367.4,0,327.6,1.6,292.2h1.4
		c3.2,18.4,29.3,51.2,99.9,51.2c135.4,0,286.5-99.3,286.5-186.3c0-14.9-4.1-24.2-6.3-28.4L384.3,127.8z"/>
	<path class="st0" d="M435.4,218.9c0.6,2.1,3.9,11.4,3.9,26.1c0,108.6-154.7,201.5-289.3,201.5c-69.3,0-105.4-33.6-113.1-47.3
		l1.2-0.9c19.2,16.8,56.9,29.5,101,29.5c118.9,0,296.2-90.4,294.6-208.4L435.4,218.9z"/>
</g>
</svg>
