<?xml version="1.0" encoding="utf-8"?>
<!-- Generator: Adobe Illustrator 27.4.0, SVG Export Plug-In . SVG Version: 6.00 Build 0)  -->
<svg version="1.1" id="Layer_1" xmlns="http://www.w3.org/2000/svg" xmlns:xlink="http://www.w3.org/1999/xlink" x="0px" y="0px"
	 viewBox="0 0 261.8 56" style="enable-background:new 0 0 261.8 56;" xml:space="preserve">
<style type="text/css">
	.st0{fill:#DFE8E5;}
</style>
<path class="st0" d="M105.2,48.8c2.2,0,6.1-0.7,9.2-5.6c-1.8-3.9-3-11.7-3.2-14.5C110.3,14.1,115.9,0.4,122,0
	c4.5-0.3,8.1,4,8.5,10.9c1.1,18.2-4.9,25.7-8,32.3c0.5,2.5,4.8,6.8,8.9,6.8c1.5,0,3.3-0.8,3.8-1.4c-0.3-1-0.6-2.4-0.6-4.4
	c0-10.5,6.8-19.4,12.6-19.4c4.7,0,7.4,6.1,7.4,10.2c0,4.8-4.1,8.7-10.1,12.5c1.1,1,3,1.8,4.7,1.8c8.6,0,13.1-10.4,16.4-19.8
	c0.6-1.8,1.7-4.4,3.8-4.4c3.6,0,5.1,23.7,11.1,23.7c2.6,0,4.6-5.3,4.6-9.3c0-3-1.1-3.3-1.1-7.7c0-4.8,2.6-8.8,6-8.8
	c2.1,0,2.9,2.1,2.9,4.6c0,9.6-6.9,27.5-17.1,27.5c-7.7,0-7.1-13.2-9.8-13.2c-3,0-7.2,13.4-22.1,13.4c-2.4,0-5-1.2-7.1-3.6
	c-3.6,2.4-6.6,3.5-10.1,3.5c-5.6,0-8-5.7-10.2-5.7c-2.7,0-5.7,5.9-14.7,5.9c-7.2,0-8.4-9.6-11-9.6c-2.3,0-5.7,9.6-9.4,9.6
	c-6.3,0-7.7-16.7-13.2-16.7c-4.3,0-18.1,16.9-21.8,16.5c-1.5-0.2-2.1-1.3-2-2.8c0.2-2.1,2-7.7,2.7-10.3c1.2-4.6,2.3-9.6,3-11.2
	c0.6-1.6,2.3-2.8,3.6-2.6c0.7,0.1,0.9,1.3,1.1,2.3c0.8,3.7,1.8,7.5,3,7.5c2.1,0,9.1-13.4,13.1-13.4c5,0,5.6,21,12.3,21
	c2.3,0,3.9-2.7,5.4-6c0.2-5.6,1.7-13.5,6.2-13.5c3.2,0,4.7,7,2.4,13.2C97.2,47,102,48.8,105.2,48.8L105.2,48.8z M225.3,30.8
	c-1.9,7.7-7.5,19.1-15.9,19.1c-1.9,0-5.4-0.8-5.4-2.7c0-2.1,13.2-2.4,13.2-12.5c0-3.7-3.4-9-8.6-9c-6.8,0-13.4,7.4-13.4,17.6
	c0,9.1,5.7,12.2,11.4,12.2c9.9,0,15.9-8.1,19.1-14.9c1.5,4.5,2.4,14.9,6.2,14.9c1.5,0,2.6-0.8,4.4-4.8c4.5-10.1,8.9-21.6,14.9-21.6
	c2.2,0,0.9,4.1,6.3,4.1c2.6,0,4.4-2.1,4.4-4.5c0-3.5-3.1-6.2-8-6.2c-14.1,0-17.1,21.2-19.4,21.2c-3.8,0-2.6-17-5.3-17
	C226.9,26.6,225.7,29.4,225.3,30.8L225.3,30.8z M125.7,15c-0.3-4.2-1.3-6.1-3.5-5.9c-3,0.2-4.4,9.6-3.8,19.5
	c0.4,6.5,1.3,7.5,2.2,7.4C122.3,35.8,126.3,24.3,125.7,15L125.7,15z M101.2,6.1c-0.2-2.4-2.1-4-4.7-4c-2.8,0-5.5,3-5.3,6.8
	c0.2,2.5,1.7,4.5,4.5,4.5C99.1,13.4,101.5,9.6,101.2,6.1L101.2,6.1z M148,36.8c0-2.6-1.4-4.6-3-4.6c-1.4,0-4.5,1.5-4.5,6.3
	c0,3.8,1.3,5.6,2,6.3C146.7,43.4,148,39.8,148,36.8L148,36.8z M206.7,31.7c3.1,0,4.1,3.7,3.3,6c-0.8,2.2-3.4,4.8-7.7,5.6
	C201.5,41,201,31.7,206.7,31.7z M33.7,21c-0.4-1.4-1.7-4.4-2-6.7c-0.8-5,1.9-8.3,4.3-9.1c2.7-0.8,3.8,0.6,4.8,3.8
	c1.3,4.8,1.5,11.1,1,20.1c-0.5,12.3-6.7,27.2-22,26.9C6.5,55.7,0.7,47.2,0.1,34.1c-0.3-6.2,0.2-12.3,2.7-21c1.4-4.6,2.6-6.3,6.8-7.2
	c3.3-0.6,3,2.9,2.3,6.9c-1.6,9-2.4,13.4-1.8,23.6c0.6,10.8,5.6,15,11,15c8.1,0.2,11.7-6.6,13.2-16.4C35.4,27.2,34.5,23.4,33.7,21
	L33.7,21z"/>
</svg>
